# xmcd
#
# Track frame offsets:
# 150
# 10426
# 27041
# 42497
# 56231
# 65307
# 84822
# 104705
# 121363
# 144794
# 155395
#
# Disc length: 2331 seconds
#
#
# Revision: 0
# Processed by: cddbd v1.5.1PL0 Copyright (c) Steve Scherf et al.
# Submitted via: FreeRIP 2.91 
#
DISCID=8b09190b
DTITLE=Richard Smerin - Q.M.U.D. (Quickly Made Unpolished Demo)
DYEAR=1996
DGENRE=Blues
TTITLE0=Just Your Fool
TTITLE1=Blues Run the Game
TTITLE2=Sittin' on the Top of the World
TTITLE3=Since I Lay My Burden Down
TTITLE4=Blow Wind Blow
TTITLE5=Blind Willie McTell
TTITLE6=Delia
TTITLE7=Guilty
TTITLE8=You're No Good - San Francisco Bay Blues
TTITLE9=Me An' T' Chauffeur
TTITLE10=Lisa and Lee - Payday
EXTD=
EXTT0=
EXTT1=
EXTT2=
EXTT3=
EXTT4=
EXTT5=
EXTT6=
EXTT7=
EXTT8=
EXTT9=
EXTT10=
PLAYORDER=
